<mxfile host="app.diagrams.net" modified="2024-04-02T06:52:10.231Z" agent="Mozilla/5.0 (Windows NT 10.0; Win64; x64) AppleWebKit/537.36 (KHTML, like Gecko) Chrome/94.0.4606.61 Safari/537.36" etag="99s__a6VeIK93r4nsEtB" version="24.2.1" type="github">
  <diagram name="第 1 页" id="X7zsklJzZhZyyLIHyMu6">
    <mxGraphModel dx="1449" dy="1033" grid="1" gridSize="10" guides="1" tooltips="1" connect="1" arrows="1" fold="1" page="1" pageScale="1" pageWidth="1600" pageHeight="900" math="0" shadow="0">
      <root>
        <mxCell id="0" />
        <mxCell id="1" parent="0" />
        <mxCell id="IN495iSGl3dmshIJW0Bv-1" value="" style="rounded=0;whiteSpace=wrap;html=1;fillColor=#8BB5D1;strokeColor=none;" parent="1" vertex="1">
          <mxGeometry x="348.28571428571433" y="65.81395348837208" width="35.42857142857143" height="297.6744186046511" as="geometry" />
        </mxCell>
        <mxCell id="IN495iSGl3dmshIJW0Bv-2" value="Input" style="text;html=1;align=center;verticalAlign=middle;whiteSpace=wrap;rounded=0;" parent="1" vertex="1">
          <mxGeometry x="180" y="10" width="106.28571428571428" height="55.813953488372086" as="geometry" />
        </mxCell>
        <mxCell id="IN495iSGl3dmshIJW0Bv-3" value="" style="rounded=0;whiteSpace=wrap;html=1;fillColor=#8BB5D1;strokeColor=none;" parent="1" vertex="1">
          <mxGeometry x="490" y="75.11627906976743" width="53.14285714285714" height="279.0697674418604" as="geometry" />
        </mxCell>
        <mxCell id="IN495iSGl3dmshIJW0Bv-4" value="" style="rounded=0;whiteSpace=wrap;html=1;fillColor=#8BB5D1;strokeColor=none;" parent="1" vertex="1">
          <mxGeometry x="649.4285714285713" y="103.02325581395348" width="53.14285714285714" height="223.25581395348834" as="geometry" />
        </mxCell>
        <mxCell id="IN495iSGl3dmshIJW0Bv-5" value="" style="shape=flexArrow;endArrow=classic;html=1;rounded=0;fillColor=#F7EFAE;strokeColor=none;" parent="1" edge="1">
          <mxGeometry width="50" height="50" relative="1" as="geometry">
            <mxPoint x="401.42857142857144" y="214.65116279069764" as="sourcePoint" />
            <mxPoint x="472.2857142857143" y="214.65116279069764" as="targetPoint" />
          </mxGeometry>
        </mxCell>
        <mxCell id="IN495iSGl3dmshIJW0Bv-6" value="" style="shape=flexArrow;endArrow=classic;html=1;rounded=0;fillColor=#F7EFAE;strokeColor=none;" parent="1" edge="1">
          <mxGeometry width="50" height="50" relative="1" as="geometry">
            <mxPoint x="560.8571428571429" y="213.72093023255812" as="sourcePoint" />
            <mxPoint x="631.7142857142858" y="213.72093023255812" as="targetPoint" />
          </mxGeometry>
        </mxCell>
        <mxCell id="IN495iSGl3dmshIJW0Bv-7" value="" style="shape=waypoint;sketch=0;fillStyle=solid;size=6;pointerEvents=1;points=[];fillColor=none;resizable=0;rotatable=0;perimeter=centerPerimeter;snapToPoint=1;" parent="1" vertex="1">
          <mxGeometry x="755.7142857142858" y="196.04651162790697" width="20" height="20" as="geometry" />
        </mxCell>
        <mxCell id="IN495iSGl3dmshIJW0Bv-8" value="" style="shape=waypoint;sketch=0;fillStyle=solid;size=6;pointerEvents=1;points=[];fillColor=none;resizable=0;rotatable=0;perimeter=centerPerimeter;snapToPoint=1;" parent="1" vertex="1">
          <mxGeometry x="738" y="196.04651162790697" width="20" height="20" as="geometry" />
        </mxCell>
        <mxCell id="IN495iSGl3dmshIJW0Bv-9" value="" style="shape=waypoint;sketch=0;fillStyle=solid;size=6;pointerEvents=1;points=[];fillColor=none;resizable=0;rotatable=0;perimeter=centerPerimeter;snapToPoint=1;" parent="1" vertex="1">
          <mxGeometry x="720.2857142857142" y="196.04651162790697" width="20" height="20" as="geometry" />
        </mxCell>
        <mxCell id="IN495iSGl3dmshIJW0Bv-10" value="" style="shape=flexArrow;endArrow=classic;html=1;rounded=0;fillColor=#F7EFAE;strokeColor=none;" parent="1" edge="1">
          <mxGeometry width="50" height="50" relative="1" as="geometry">
            <mxPoint x="808.8571428571428" y="213.72093023255812" as="sourcePoint" />
            <mxPoint x="879.7142857142858" y="213.72093023255812" as="targetPoint" />
          </mxGeometry>
        </mxCell>
        <mxCell id="IN495iSGl3dmshIJW0Bv-11" value="" style="rounded=0;whiteSpace=wrap;html=1;fillColor=#8BB5D1;strokeColor=none;" parent="1" vertex="1">
          <mxGeometry x="897.4285714285714" y="149.5348837209302" width="88.57142857142857" height="130.23255813953486" as="geometry" />
        </mxCell>
        <mxCell id="IN495iSGl3dmshIJW0Bv-12" value="" style="shape=flexArrow;endArrow=classic;html=1;rounded=0;fillColor=#F7EFAE;strokeColor=none;" parent="1" edge="1">
          <mxGeometry width="50" height="50" relative="1" as="geometry">
            <mxPoint x="1021.4285714285714" y="213.72093023255812" as="sourcePoint" />
            <mxPoint x="1216.2857142857142" y="344.8837209302325" as="targetPoint" />
          </mxGeometry>
        </mxCell>
        <mxCell id="IN495iSGl3dmshIJW0Bv-13" value="" style="rounded=0;whiteSpace=wrap;html=1;fillColor=#8BB5D1;strokeColor=none;" parent="1" vertex="1">
          <mxGeometry x="1251.7142857142858" y="344.8837209302325" width="159.42857142857144" height="111.62790697674417" as="geometry" />
        </mxCell>
        <mxCell id="IN495iSGl3dmshIJW0Bv-14" value="" style="shape=flexArrow;endArrow=classic;html=1;rounded=0;fillColor=#F3C846;strokeColor=none;" parent="1" edge="1">
          <mxGeometry width="50" height="50" relative="1" as="geometry">
            <mxPoint x="1216.2857142857142" y="475.11627906976736" as="sourcePoint" />
            <mxPoint x="1021.4285714285714" y="586.7441860465115" as="targetPoint" />
          </mxGeometry>
        </mxCell>
        <mxCell id="IN495iSGl3dmshIJW0Bv-15" value="" style="rounded=0;whiteSpace=wrap;html=1;fillColor=#8BB5D1;strokeColor=none;" parent="1" vertex="1">
          <mxGeometry x="897.4285714285714" y="549.5348837209302" width="88.57142857142857" height="130.23255813953486" as="geometry" />
        </mxCell>
        <mxCell id="IN495iSGl3dmshIJW0Bv-16" value="" style="rounded=0;whiteSpace=wrap;html=1;fillColor=#8BB5D1;strokeColor=none;" parent="1" vertex="1">
          <mxGeometry x="649.4285714285713" y="503.0232558139534" width="53.14285714285714" height="223.25581395348834" as="geometry" />
        </mxCell>
        <mxCell id="IN495iSGl3dmshIJW0Bv-17" value="" style="rounded=0;whiteSpace=wrap;html=1;fillColor=#8BB5D1;strokeColor=none;" parent="1" vertex="1">
          <mxGeometry x="490" y="475.11627906976736" width="53.14285714285714" height="279.0697674418604" as="geometry" />
        </mxCell>
        <mxCell id="IN495iSGl3dmshIJW0Bv-18" value="" style="rounded=0;whiteSpace=wrap;html=1;fillColor=#8BB5D1;strokeColor=none;" parent="1" vertex="1">
          <mxGeometry x="348.28571428571433" y="465.813953488372" width="35.42857142857143" height="297.6744186046511" as="geometry" />
        </mxCell>
        <mxCell id="IN495iSGl3dmshIJW0Bv-19" value="output" style="text;html=1;align=center;verticalAlign=middle;whiteSpace=wrap;rounded=0;" parent="1" vertex="1">
          <mxGeometry x="180" y="754.1860465116279" width="106.28571428571428" height="55.813953488372086" as="geometry" />
        </mxCell>
        <mxCell id="IN495iSGl3dmshIJW0Bv-20" value="" style="shape=flexArrow;endArrow=classic;html=1;rounded=0;fillColor=#F3C846;strokeColor=none;" parent="1" edge="1">
          <mxGeometry width="50" height="50" relative="1" as="geometry">
            <mxPoint x="631.7142857142858" y="613.7209302325581" as="sourcePoint" />
            <mxPoint x="560.8571428571429" y="613.7209302325581" as="targetPoint" />
          </mxGeometry>
        </mxCell>
        <mxCell id="IN495iSGl3dmshIJW0Bv-21" value="" style="shape=flexArrow;endArrow=classic;html=1;rounded=0;fillColor=#F3C846;strokeColor=none;" parent="1" edge="1">
          <mxGeometry width="50" height="50" relative="1" as="geometry">
            <mxPoint x="472.2857142857143" y="613.7209302325581" as="sourcePoint" />
            <mxPoint x="401.42857142857144" y="613.7209302325581" as="targetPoint" />
          </mxGeometry>
        </mxCell>
        <mxCell id="IN495iSGl3dmshIJW0Bv-24" value="" style="shape=waypoint;sketch=0;fillStyle=solid;size=6;pointerEvents=1;points=[];fillColor=none;resizable=0;rotatable=0;perimeter=centerPerimeter;snapToPoint=1;" parent="1" vertex="1">
          <mxGeometry x="755.7142857142858" y="596.0465116279069" width="20" height="20" as="geometry" />
        </mxCell>
        <mxCell id="IN495iSGl3dmshIJW0Bv-25" value="" style="shape=waypoint;sketch=0;fillStyle=solid;size=6;pointerEvents=1;points=[];fillColor=none;resizable=0;rotatable=0;perimeter=centerPerimeter;snapToPoint=1;" parent="1" vertex="1">
          <mxGeometry x="738" y="596.0465116279069" width="20" height="20" as="geometry" />
        </mxCell>
        <mxCell id="IN495iSGl3dmshIJW0Bv-26" value="" style="shape=waypoint;sketch=0;fillStyle=solid;size=6;pointerEvents=1;points=[];fillColor=none;resizable=0;rotatable=0;perimeter=centerPerimeter;snapToPoint=1;" parent="1" vertex="1">
          <mxGeometry x="720.2857142857142" y="596.0465116279069" width="20" height="20" as="geometry" />
        </mxCell>
        <mxCell id="IN495iSGl3dmshIJW0Bv-27" value="" style="shape=flexArrow;endArrow=classic;html=1;rounded=0;fillColor=#F3C846;strokeColor=none;" parent="1" edge="1">
          <mxGeometry width="50" height="50" relative="1" as="geometry">
            <mxPoint x="879.7142857142858" y="613.7209302325581" as="sourcePoint" />
            <mxPoint x="808.8571428571428" y="613.7209302325581" as="targetPoint" />
          </mxGeometry>
        </mxCell>
        <mxCell id="IN495iSGl3dmshIJW0Bv-28" value="" style="shape=flexArrow;endArrow=classic;html=1;rounded=0;fillColor=#F3C846;strokeColor=none;" parent="1" edge="1">
          <mxGeometry width="50" height="50" relative="1" as="geometry">
            <mxPoint x="330.57142857142856" y="613.7209302325581" as="sourcePoint" />
            <mxPoint x="259.7142857142857" y="613.7209302325581" as="targetPoint" />
          </mxGeometry>
        </mxCell>
        <mxCell id="IN495iSGl3dmshIJW0Bv-29" value="" style="rounded=0;whiteSpace=wrap;html=1;fillColor=#8BB5D1;strokeColor=none;" parent="1" vertex="1">
          <mxGeometry x="224.28571428571428" y="465.813953488372" width="17.714285714285715" height="297.6744186046511" as="geometry" />
        </mxCell>
        <mxCell id="IN495iSGl3dmshIJW0Bv-30" value="" style="shape=flexArrow;endArrow=classic;html=1;rounded=0;fillColor=#4A7298;strokeColor=none;" parent="1" edge="1">
          <mxGeometry width="50" height="50" relative="1" as="geometry">
            <mxPoint x="940.6691428571427" y="372.7906976744186" as="sourcePoint" />
            <mxPoint x="940.6691428571427" y="465.813953488372" as="targetPoint" />
          </mxGeometry>
        </mxCell>
        <mxCell id="IN495iSGl3dmshIJW0Bv-31" value="" style="shape=flexArrow;endArrow=classic;html=1;rounded=0;fillColor=#4A7298;strokeColor=none;" parent="1" edge="1">
          <mxGeometry width="50" height="50" relative="1" as="geometry">
            <mxPoint x="515.6857142857143" y="372.7906976744186" as="sourcePoint" />
            <mxPoint x="515.6857142857143" y="465.813953488372" as="targetPoint" />
          </mxGeometry>
        </mxCell>
        <mxCell id="IN495iSGl3dmshIJW0Bv-32" value="" style="shape=flexArrow;endArrow=classic;html=1;rounded=0;fillColor=#4A7298;strokeColor=none;" parent="1" edge="1">
          <mxGeometry width="50" height="50" relative="1" as="geometry">
            <mxPoint x="365.11428571428576" y="372.7906976744186" as="sourcePoint" />
            <mxPoint x="365.11428571428576" y="465.813953488372" as="targetPoint" />
          </mxGeometry>
        </mxCell>
        <mxCell id="IN495iSGl3dmshIJW0Bv-33" value="" style="shape=flexArrow;endArrow=classic;html=1;rounded=0;fillColor=#4A7298;strokeColor=none;" parent="1" edge="1">
          <mxGeometry width="50" height="50" relative="1" as="geometry">
            <mxPoint x="675.1142857142856" y="372.7906976744186" as="sourcePoint" />
            <mxPoint x="675.1142857142856" y="465.813953488372" as="targetPoint" />
          </mxGeometry>
        </mxCell>
        <mxCell id="IN495iSGl3dmshIJW0Bv-34" value="E&lt;sub&gt;1&lt;/sub&gt;" style="text;html=1;align=center;verticalAlign=middle;whiteSpace=wrap;rounded=0;fontSize=20;" parent="1" vertex="1">
          <mxGeometry x="383.71428571428567" y="140.23255813953486" width="106.28571428571428" height="55.813953488372086" as="geometry" />
        </mxCell>
        <mxCell id="IN495iSGl3dmshIJW0Bv-35" value="E&lt;sub style=&quot;font-size: 20px;&quot;&gt;N&lt;/sub&gt;" style="text;html=1;align=center;verticalAlign=middle;whiteSpace=wrap;rounded=0;fontSize=20;" parent="1" vertex="1">
          <mxGeometry x="1074.5714285714284" y="223.95348837209298" width="106.28571428571428" height="55.813953488372086" as="geometry" />
        </mxCell>
        <mxCell id="IN495iSGl3dmshIJW0Bv-36" value="E&lt;sub style=&quot;font-size: 20px;&quot;&gt;N-1&lt;/sub&gt;" style="text;html=1;align=center;verticalAlign=middle;whiteSpace=wrap;rounded=0;fontSize=20;" parent="1" vertex="1">
          <mxGeometry x="791.1428571428571" y="140.23255813953486" width="106.28571428571428" height="55.813953488372086" as="geometry" />
        </mxCell>
        <mxCell id="IN495iSGl3dmshIJW0Bv-37" value="E&lt;sub style=&quot;font-size: 20px;&quot;&gt;2&lt;/sub&gt;" style="text;html=1;align=center;verticalAlign=middle;whiteSpace=wrap;rounded=0;fontSize=20;" parent="1" vertex="1">
          <mxGeometry x="543.1428571428571" y="140.23255813953486" width="106.28571428571428" height="55.813953488372086" as="geometry" />
        </mxCell>
        <mxCell id="IN495iSGl3dmshIJW0Bv-38" value="&lt;span style=&quot;font-size: 20px;&quot;&gt;&lt;span style=&quot;vertical-align: sub; font-size: 20px;&quot;&gt;D&lt;/span&gt;&lt;sub&gt;N&lt;/sub&gt;&lt;/span&gt;" style="text;html=1;align=center;verticalAlign=middle;whiteSpace=wrap;rounded=0;fontSize=20;" parent="1" vertex="1">
          <mxGeometry x="1074.5714285714284" y="465.8116279069767" width="106.28571428571428" height="55.813953488372086" as="geometry" />
        </mxCell>
        <mxCell id="IN495iSGl3dmshIJW0Bv-39" value="&lt;span style=&quot;font-size: 20px;&quot;&gt;&lt;span style=&quot;vertical-align: sub; font-size: 20px;&quot;&gt;D&lt;/span&gt;&lt;sub&gt;N-1&lt;/sub&gt;&lt;/span&gt;" style="text;html=1;align=center;verticalAlign=middle;whiteSpace=wrap;rounded=0;fontSize=20;" parent="1" vertex="1">
          <mxGeometry x="791.1428571428571" y="549.5325581395348" width="106.28571428571428" height="55.813953488372086" as="geometry" />
        </mxCell>
        <mxCell id="IN495iSGl3dmshIJW0Bv-40" value="&lt;span style=&quot;font-size: 20px;&quot;&gt;&lt;span style=&quot;vertical-align: sub; font-size: 20px;&quot;&gt;D&lt;/span&gt;&lt;sub&gt;2&lt;/sub&gt;&lt;/span&gt;" style="text;html=1;align=center;verticalAlign=middle;whiteSpace=wrap;rounded=0;fontSize=20;" parent="1" vertex="1">
          <mxGeometry x="543.1428571428571" y="549.5325581395348" width="106.28571428571428" height="55.813953488372086" as="geometry" />
        </mxCell>
        <mxCell id="IN495iSGl3dmshIJW0Bv-41" value="&lt;font style=&quot;font-size: 20px;&quot;&gt;D&lt;sub&gt;1&lt;/sub&gt;&lt;/font&gt;" style="text;html=1;align=center;verticalAlign=middle;whiteSpace=wrap;rounded=0;" parent="1" vertex="1">
          <mxGeometry x="383.71428571428567" y="549.5348837209302" width="106.28571428571428" height="55.813953488372086" as="geometry" />
        </mxCell>
        <mxCell id="IN495iSGl3dmshIJW0Bv-42" value="Output layer" style="text;html=1;align=center;verticalAlign=middle;whiteSpace=wrap;rounded=0;fontSize=20;" parent="1" vertex="1">
          <mxGeometry x="259.7142857142857" y="549.5325581395348" width="70.85714285714286" height="55.813953488372086" as="geometry" />
        </mxCell>
        <mxCell id="IN495iSGl3dmshIJW0Bv-43" value="" style="shape=flexArrow;endArrow=classic;html=1;rounded=0;fillColor=#F7EFAE;strokeColor=none;" parent="1" edge="1">
          <mxGeometry width="50" height="50" relative="1" as="geometry">
            <mxPoint x="1180.8571428571427" y="576.5116279069766" as="sourcePoint" />
            <mxPoint x="1251.7142857142858" y="576.5116279069766" as="targetPoint" />
          </mxGeometry>
        </mxCell>
        <mxCell id="IN495iSGl3dmshIJW0Bv-44" value="Ei, Encoder" style="text;html=1;align=center;verticalAlign=middle;whiteSpace=wrap;rounded=0;fontSize=20;" parent="1" vertex="1">
          <mxGeometry x="1251.7157142857143" y="549.5348837209302" width="141.71428571428572" height="55.813953488372086" as="geometry" />
        </mxCell>
        <mxCell id="IN495iSGl3dmshIJW0Bv-46" value="Di, Decoder" style="text;html=1;align=center;verticalAlign=middle;whiteSpace=wrap;rounded=0;labelPosition=center;verticalLabelPosition=middle;fontSize=20;" parent="1" vertex="1">
          <mxGeometry x="1251.7157142857143" y="623.9534883720929" width="141.71428571428572" height="55.813953488372086" as="geometry" />
        </mxCell>
        <mxCell id="IN495iSGl3dmshIJW0Bv-47" value="" style="shape=flexArrow;endArrow=classic;html=1;rounded=0;fillColor=#F3C846;strokeColor=none;" parent="1" edge="1">
          <mxGeometry width="50" height="50" relative="1" as="geometry">
            <mxPoint x="1251.7142857142858" y="651.0604651162789" as="sourcePoint" />
            <mxPoint x="1180.8571428571427" y="651.0604651162789" as="targetPoint" />
          </mxGeometry>
        </mxCell>
        <mxCell id="IN495iSGl3dmshIJW0Bv-48" value="" style="shape=flexArrow;endArrow=classic;html=1;rounded=0;fillColor=#4A7298;strokeColor=none;" parent="1" edge="1">
          <mxGeometry width="50" height="50" relative="1" as="geometry">
            <mxPoint x="1216.2857142857142" y="698.3720930232557" as="sourcePoint" />
            <mxPoint x="1216.2857142857142" y="772.7906976744185" as="targetPoint" />
          </mxGeometry>
        </mxCell>
        <mxCell id="IN495iSGl3dmshIJW0Bv-49" value="copy" style="text;html=1;align=center;verticalAlign=middle;whiteSpace=wrap;rounded=0;labelPosition=center;verticalLabelPosition=middle;fontSize=20;" parent="1" vertex="1">
          <mxGeometry x="1251.7157142857143" y="698.3720930232557" width="141.71428571428572" height="55.813953488372086" as="geometry" />
        </mxCell>
        <mxCell id="IN495iSGl3dmshIJW0Bv-50" value="" style="rounded=0;whiteSpace=wrap;html=1;fillColor=#8BB5D1;strokeColor=none;" parent="1" vertex="1">
          <mxGeometry x="224.28571428571428" y="65.81395348837208" width="17.714285714285715" height="297.6744186046511" as="geometry" />
        </mxCell>
        <mxCell id="IN495iSGl3dmshIJW0Bv-52" value="" style="shape=flexArrow;endArrow=classic;html=1;rounded=0;fillColor=#F7EFAE;strokeColor=none;" parent="1" edge="1">
          <mxGeometry width="50" height="50" relative="1" as="geometry">
            <mxPoint x="259.7142857142857" y="213.72093023255812" as="sourcePoint" />
            <mxPoint x="330.57142857142856" y="213.72093023255812" as="targetPoint" />
          </mxGeometry>
        </mxCell>
        <mxCell id="IN495iSGl3dmshIJW0Bv-53" value="input&lt;div style=&quot;font-size: 20px;&quot;&gt;layer&lt;/div&gt;" style="text;html=1;align=center;verticalAlign=middle;whiteSpace=wrap;rounded=0;fontSize=20;" parent="1" vertex="1">
          <mxGeometry x="242" y="140.23255813953486" width="106.28571428571428" height="55.813953488372086" as="geometry" />
        </mxCell>
      </root>
    </mxGraphModel>
  </diagram>
</mxfile>
